<svg width="10" height="16" viewBox="0 0 10 16" fill="none" xmlns="http://www.w3.org/2000/svg">
<path d="M4.43246 7.00519C3.54888 7.00519 2.84892 6.27862 2.9492 5.44228C3.03254 4.7003 3.74943 4.17912 4.53274 4.17912H5.86624C6.36631 4.17912 6.78303 4.51095 6.88331 4.95255C6.91651 5.07899 7.03307 5.15794 7.16654 5.15794H8.66674C8.83343 5.15794 8.98318 5.01608 8.96691 4.85819C8.81715 3.42109 7.58326 2.30045 6.04987 2.20539V0.784338C6.04987 0.626443 5.91639 0.5 5.74969 0.5H4.2495C4.08281 0.5 3.94933 0.626439 3.94933 0.784338V2.22144C2.08259 2.45766 0.665736 4.05271 0.84926 5.93134C1.03288 7.69961 2.716 8.99419 4.58274 8.99419H5.56594C6.44952 8.99419 7.14947 9.72077 7.04919 10.5571C6.96585 11.2991 6.24896 11.8203 5.46566 11.8203H4.13215C3.63209 11.8203 3.21537 11.4884 3.11509 11.0468C3.08188 10.9204 2.96533 10.8414 2.83185 10.8414L1.33231 10.8421C1.16562 10.8421 1.01586 10.9839 1.03213 11.1418C1.18189 12.5789 2.41578 13.6996 3.94918 13.7946V15.2157C3.94918 15.3736 4.08266 15.5 4.24935 15.5H5.74954C5.91623 15.5 6.04972 15.3736 6.04972 15.2157V13.7632C7.65019 13.5103 8.98376 12.3261 9.15045 10.7631C9.35034 8.72661 7.66654 7.00508 5.56599 7.00508L4.43246 7.00519Z" fill="#FF7043"/>
</svg>
