<svg width="24" height="24" viewBox="0 0 24 24" fill="none" xmlns="http://www.w3.org/2000/svg">
<g id="icons /  menu">
<path id="Fill 1" fill-rule="evenodd" clip-rule="evenodd" d="M8.5 2H4.5C3.119 2 2 3.119 2 4.5V10.5C2 11.881 3.119 13 4.5 13H8.5C9.881 13 11 11.881 11 10.5V4.5C11 3.119 9.881 2 8.5 2ZM15.5 11H19.5C20.881 11 22 12.119 22 13.5V19.5C22 20.881 20.881 22 19.5 22H15.5C14.119 22 13 20.881 13 19.5V13.5C13 12.119 14.119 11 15.5 11ZM4.739 14H8.261C9.774 14 11 15.227 11 16.738V19.262C11 20.773 9.774 22 8.261 22H4.739C3.226 22 2 20.773 2 19.262V16.738C2 15.227 3.226 14 4.739 14ZM15.738 2H19.261C20.773 2 22 3.226 22 4.739V7.261C22 8.774 20.773 10 19.261 10H15.738C14.226 10 13 8.774 13 7.261V4.739C13 3.226 14.226 2 15.738 2ZM8.261 16C8.668 16 9 16.331 9 16.738V19.262C9 19.669 8.668 20 8.261 20H4.739C4.331 20 4 19.669 4 19.262V16.738C4 16.331 4.331 16 4.739 16H8.261ZM20 13.5C20 13.225 19.775 13 19.5 13H15.5C15.224 13 15 13.225 15 13.5V19.5C15 19.775 15.224 20 15.5 20H19.5C19.775 20 20 19.775 20 19.5V13.5ZM8.5 4C8.776 4 9 4.224 9 4.5V10.5C9 10.776 8.776 11 8.5 11H4.5C4.224 11 4 10.776 4 10.5V4.5C4 4.224 4.224 4 4.5 4H8.5ZM20 4.739C20 4.332 19.669 4 19.261 4H15.738C15.331 4 15 4.332 15 4.739V7.261C15 7.668 15.331 8 15.738 8H19.261C19.669 8 20 7.668 20 7.261V4.739Z" fill="#202020"/>
</g>
</svg>
