<svg width="20" height="16" viewBox="0 0 20 16" fill="none" xmlns="http://www.w3.org/2000/svg">
<g id="icons /  menu">
<path id="Fill 1" fill-rule="evenodd" clip-rule="evenodd" d="M0 2.46536C0 1.10357 1.03 0 2.301 0H17.692C18.963 0 19.994 1.10357 19.994 2.46536V13.5346C19.994 14.8964 18.963 16 17.692 16H2.301C1.03 16 0 14.8964 0 13.5346V2.46536ZM17.994 13.699V2.301C17.994 2.135 17.858 2 17.692 2H2.301C2.135 2 2 2.135 2 2.301V13.699C2 13.865 2.135 14 2.301 14H17.692C17.858 14 17.994 13.865 17.994 13.699ZM7.357 5.169H4.622C3.714 5.169 2.979 5.905 2.979 6.813V9.469C2.979 10.376 3.714 11.111 4.622 11.111H7.357C8.264 11.111 9.001 10.376 9.001 9.469V6.813C9.001 5.905 8.264 5.169 7.357 5.169ZM7.001 9.112H4.98V7.169H7.001V9.112ZM15.852 9.509C15.852 8.957 15.405 8.509 14.852 8.509H11.005C10.453 8.509 10.005 8.957 10.005 9.509C10.005 10.062 10.453 10.509 11.005 10.509H14.852C15.405 10.509 15.852 10.062 15.852 9.509ZM16.039 5.439C16.591 5.439 17.039 5.887 17.039 6.439C17.039 6.991 16.591 7.439 16.039 7.439H11.005C10.453 7.439 10.005 6.991 10.005 6.439C10.005 5.887 10.453 5.439 11.005 5.439H16.039Z" fill="#202020"/>
</g>
</svg>
