<svg width="20" height="19" viewBox="0 0 20 19" fill="none" xmlns="http://www.w3.org/2000/svg">
<path fill-rule="evenodd" clip-rule="evenodd" d="M5 17C4.447 17 4 16.553 4 16C4 15.447 4.447 15 5 15H8V13H3C1.343 13 0 11.657 0 10V3C0 1.343 1.343 0 3 0H15C16.657 0 18 1.343 18 3V6H16V3C16 2.449 15.552 2 15 2H3C2.448 2 2 2.449 2 3V10C2 10.552 2.448 11 3 11H11V13H10V15H11V17H5ZM17.172 7C18.734 7 20 8.266 20 9.829V16.172C20 17.733 18.734 19 17.172 19H14.828C13.267 19 12 17.733 12 16.172V9.829C12 8.266 13.267 7 14.828 7H17.172ZM14 9.829C14 9.372 14.372 9 14.828 9H17.172C17.628 9 18 9.372 18 9.829V16.172C18 16.628 17.628 17 17.172 17H14.828C14.372 17 14 16.628 14 16.172V9.829Z" fill="#202020"/>
</svg>
