<svg width="32" height="32" viewBox="0 0 32 32" fill="none" xmlns="http://www.w3.org/2000/svg">
<path opacity="0.3" fill-rule="evenodd" clip-rule="evenodd" d="M16 32C24.8366 32 32 24.8366 32 16C32 7.16344 24.8366 0 16 0C7.16344 0 0 7.16344 0 16C0 24.8366 7.16344 32 16 32Z" fill="#BBDEFB"/>
<path fill-rule="evenodd" clip-rule="evenodd" d="M11 13.75C11 10.8475 13.2357 8.5 16 8.5C18.7643 8.5 21 10.8475 21 13.75C21 17.6875 16 23.5 16 23.5C16 23.5 11 17.6875 11 13.75ZM14.2143 13.75C14.2143 14.785 15.0143 15.625 16.0001 15.625C16.9858 15.625 17.7858 14.785 17.7858 13.75C17.7858 12.715 16.9858 11.875 16.0001 11.875C15.0143 11.875 14.2143 12.715 14.2143 13.75Z" fill="#2196F3"/>
</svg>
