<svg width="21" height="23" viewBox="0 0 21 23" fill="none" xmlns="http://www.w3.org/2000/svg">
<path fill-rule="evenodd" clip-rule="evenodd" d="M16.0001 18.1204C16.0001 19.1632 15.172 20.0093 14.1504 20.0093H10.7694C10.7694 21.5735 9.52902 22.8426 8.00015 22.8426C6.47129 22.8426 5.23092 21.5735 5.23092 20.0093H1.84975C0.828123 20.0093 0 19.1644 0 18.1204C0 17.0775 0.826923 16.2315 1.84735 16.2315C1.84615 16.2315 1.84615 12.4537 1.84615 12.4537C1.84615 8.97469 4.60095 6.15741 8 6.15741C11.399 6.15741 14.1538 8.97598 14.1538 12.4537V16.2315C15.1707 16.2315 16 17.0775 16 18.1204H16.0001ZM6.46169 20.0093C6.46169 20.8787 7.1504 21.5833 8.00015 21.5833C8.84991 21.5833 9.53862 20.8787 9.53862 20.0093H6.46169ZM14.1529 17.4907C13.4738 17.4907 12.9233 16.9287 12.9233 16.2315V12.4537C12.9233 9.67203 10.7201 7.41667 8.00018 7.41667C5.28022 7.41667 3.07706 9.67081 3.07706 12.4537V16.2315C3.07706 16.9263 2.52536 17.4907 1.84748 17.4907C1.50733 17.4907 1.23089 17.7736 1.23089 18.1204C1.23089 18.4684 1.50734 18.75 1.84988 18.75H14.1506C14.492 18.75 14.7696 18.4672 14.7696 18.1204C14.7696 17.7736 14.4919 17.4907 14.153 17.4907H14.1529Z" fill="#3D3D3D"/>
<path fill-rule="evenodd" clip-rule="evenodd" d="M14.0001 12C16.7615 12 19.0001 9.76142 19.0001 7C19.0001 4.23858 16.7615 2 14.0001 2C11.2387 2 9.00012 4.23858 9.00012 7C9.00012 9.76142 11.2387 12 14.0001 12Z" fill="#3768C4" stroke="white" stroke-width="3"/>
</svg>
