<svg width="22" height="22" viewBox="0 0 22 22" fill="none" xmlns="http://www.w3.org/2000/svg">
<g id="icons /  menu">
<path id="Path" fill-rule="evenodd" clip-rule="evenodd" d="M11.0001 3.66667C10.4376 3.66667 9.98156 4.12268 9.98156 4.68519V9.98149H4.68527C4.12275 9.98149 3.66675 10.4375 3.66675 11C3.66675 11.5625 4.12275 12.0185 4.68527 12.0185H9.98156V17.3148C9.98156 17.8773 10.4376 18.3333 11.0001 18.3333C11.5626 18.3333 12.0186 17.8773 12.0186 17.3148V12.0185H17.3149C17.8774 12.0185 18.3334 11.5625 18.3334 11C18.3334 10.4375 17.8774 9.98149 17.3149 9.98149H12.0186V4.68519C12.0186 4.12268 11.5626 3.66667 11.0001 3.66667Z" fill="#202020"/>
</g>
</svg>
