<svg width="21" height="14" viewBox="0 0 21 14" fill="none" xmlns="http://www.w3.org/2000/svg">
<g id="Path 2">
<path id="Path 2_2" fill-rule="evenodd" clip-rule="evenodd" d="M3.88889 13.2222C3.88889 13.6518 4.23711 14 4.66667 14H17.1111C17.5407 14 17.8889 13.6518 17.8889 13.2222V5.71895C17.8889 5.2894 18.2371 4.94118 18.6667 4.94118H20.2222C20.6518 4.94118 21 4.59295 21 4.1634V0.777777C21 0.348223 20.6518 0 20.2222 0H0.777779C0.348224 0 0 0.348223 0 0.777778V4.1634C0 4.59295 0.348223 4.94118 0.777778 4.94118H3.11111C3.54067 4.94118 3.88889 5.2894 3.88889 5.71895V13.2222Z" fill="#5AB963"/>
</g>
</svg>
