<svg width="40" height="40" viewBox="0 0 40 40" fill="none" xmlns="http://www.w3.org/2000/svg">
<g id="Group 6 Copy 3">
<rect id="Rectangle" x="0.5" y="0.5" width="39" height="39" rx="3.5" fill="white" stroke="#3768C4"/>
<path id="Path 2" fill-rule="evenodd" clip-rule="evenodd" d="M13.8889 26.2222C13.8889 26.6518 14.2371 27 14.6667 27H27.1111C27.5407 27 27.8889 26.6518 27.8889 26.2222V18.719C27.8889 18.2894 28.2371 17.9412 28.6667 17.9412H30.2222C30.6518 17.9412 31 17.593 31 17.1634V13.7778C31 13.3482 30.6518 13 30.2222 13H10.7778C10.3482 13 10 13.3482 10 13.7778V17.1634C10 17.593 10.3482 17.9412 10.7778 17.9412H13.1111C13.5407 17.9412 13.8889 18.2894 13.8889 18.719V26.2222Z" fill="white" stroke="#3768C4"/>
</g>
</svg>
