<svg width="20" height="22" viewBox="0 0 20 22" fill="none" xmlns="http://www.w3.org/2000/svg">
<g id="icons /  menu">
<path id="Fill 1" fill-rule="evenodd" clip-rule="evenodd" d="M2 3C2 2.448 2.447 2 3 2C3.553 2 4 2.448 4 3V11H2V3ZM2.12 12H17.88C19.051 12 20 12.949 20 14.12V18.951C20 20.122 19.051 21.071 17.88 21.071H2.12C0.949 21.071 0 20.122 0 18.951V14.12C0 12.949 0.949 12 2.12 12ZM17.88 14C17.946 14 18 14.054 18 14.12V18.951C18 19.018 17.946 19.071 17.88 19.071H2.12C2.054 19.071 2 19.018 2 18.951V14.12C2 14.054 2.054 14 2.12 14H17.88ZM4 16.5C4 15.672 4.672 15 5.5 15C6.328 15 7 15.672 7 16.5C7 17.328 6.328 18 5.5 18C4.672 18 4 17.328 4 16.5Z" fill="white"/>
<path id="Combined Shape" fill-rule="evenodd" clip-rule="evenodd" d="M10.8462 5.84616C10.8462 7.76924 10.077 9.46154 8.80773 10.7308C8.76927 10.8077 8.65388 10.8462 8.5385 10.8462C8.42311 10.8462 8.34619 10.8077 8.26927 10.7308L7.73081 10.1923C7.57696 10.0385 7.57696 9.8077 7.73081 9.65385C8.69235 8.69232 9.30773 7.34616 9.30773 5.84616C9.30773 4.34616 8.69235 3.00001 7.73081 2.03847C7.57696 1.88462 7.57696 1.65385 7.73081 1.50001L8.26927 0.961546C8.34619 0.884622 8.42311 0.846161 8.5385 0.846161C8.65388 0.846161 8.73081 0.884622 8.80773 0.961546C10.077 2.19231 10.8462 3.92308 10.8462 5.84616ZM6.65388 3.15385C7.34619 3.84616 7.76927 4.76924 7.76927 5.84616C7.76927 6.92308 7.34619 7.84616 6.65388 8.53847C6.50004 8.69231 6.26927 8.69231 6.11542 8.53847L5.57696 8.00001C5.42311 7.84616 5.42311 7.61539 5.57696 7.46155C5.96158 7.03847 6.23081 6.46155 6.23081 5.84616C6.23081 5.23078 6.00004 4.65385 5.57696 4.23078C5.42311 4.07693 5.42311 3.84616 5.57696 3.69231L6.11542 3.15385C6.26927 3.00001 6.50004 3.00001 6.65388 3.15385Z" fill="white"/>
</g>
</svg>
