<svg width="20" height="20" viewBox="0 0 20 20" fill="none" xmlns="http://www.w3.org/2000/svg">
<g id="icons /  menu">
<path id="Fill 3" fill-rule="evenodd" clip-rule="evenodd" d="M7.1457 19.6655C7.9947 19.8865 8.8437 19.9985 9.6717 19.9985C10.4987 19.9985 11.3477 19.8865 12.1967 19.6655C12.5817 19.5645 12.8697 19.2475 12.9317 18.8545L13.2977 16.5575C13.3787 16.5125 13.4597 16.4665 13.5387 16.4185L15.7157 17.2535C16.0897 17.3945 16.5077 17.3055 16.7867 17.0215C17.9827 15.8085 18.8537 14.2955 19.3067 12.6435C19.4117 12.2615 19.2797 11.8515 18.9717 11.6025L17.1697 10.1415C17.1707 10.0945 17.1717 10.0465 17.1717 9.9985C17.1717 9.9505 17.1707 9.9025 17.1697 9.8555L18.9717 8.3935C19.2807 8.1435 19.4117 7.7355 19.3067 7.3525C18.8537 5.7015 17.9827 4.1865 16.7867 2.9745C16.5077 2.6935 16.0887 2.6025 15.7167 2.7445L13.5387 3.5785C13.4597 3.5305 13.3797 3.4845 13.2977 3.4395L12.9317 1.1425C12.8697 0.7505 12.5817 0.4325 12.1977 0.3315C10.5007 -0.1105 8.8417 -0.1105 7.1447 0.3315C6.7607 0.4325 6.4727 0.7505 6.4107 1.1425L6.0457 3.4395C5.9637 3.4845 5.8827 3.5305 5.8037 3.5785L3.6257 2.7445C3.2547 2.6005 2.8347 2.6925 2.5557 2.9745C1.3597 4.1865 0.488703 5.7015 0.0357033 7.3525C-0.0692967 7.7355 0.0617033 8.1435 0.370703 8.3935L2.1737 9.8555C2.1727 9.9025 2.1717 9.9505 2.1717 9.9985C2.1717 10.0465 2.1727 10.0945 2.1737 10.1415L0.370703 11.6025C0.0627033 11.8515 -0.0692967 12.2615 0.0357033 12.6435C0.488703 14.2955 1.3597 15.8085 2.5557 17.0215C2.8357 17.3065 3.2547 17.3965 3.6267 17.2535L5.8037 16.4185C5.8827 16.4665 5.9647 16.5125 6.0457 16.5575L6.4107 18.8545C6.4727 19.2475 6.7607 19.5645 7.1457 19.6655ZM11.0637 17.8695C10.1227 18.0415 9.2197 18.0415 8.2787 17.8695L7.9397 15.7395C7.8877 15.4105 7.6747 15.1295 7.3727 14.9895C7.0647 14.8475 6.7707 14.6775 6.4997 14.4855C6.2267 14.2925 5.8767 14.2475 5.5637 14.3685L3.5477 15.1415C2.9487 14.4275 2.4777 13.6075 2.1597 12.7265L3.8317 11.3715C4.0907 11.1625 4.2267 10.8375 4.1977 10.5065C4.1827 10.3385 4.1717 10.1695 4.1717 9.9985C4.1717 9.8275 4.1827 9.6585 4.1977 9.4905C4.2267 9.1595 4.0907 8.8345 3.8317 8.6245L2.1597 7.2695C2.4777 6.3885 2.9487 5.5705 3.5477 4.8555L5.5647 5.6285C5.8747 5.7475 6.2257 5.7045 6.5007 5.5105C6.7717 5.3185 7.0647 5.1495 7.3717 5.0085C7.6747 4.8685 7.8877 4.5865 7.9397 4.2575L8.2787 2.1275C9.2197 1.9555 10.1227 1.9555 11.0637 2.1275L11.4027 4.2575C11.4547 4.5865 11.6687 4.8685 11.9707 5.0085C12.2777 5.1495 12.5707 5.3185 12.8417 5.5105C13.1157 5.7045 13.4687 5.7475 13.7777 5.6285L15.7957 4.8555C16.3937 5.5705 16.8647 6.3885 17.1827 7.2695L15.5107 8.6245C15.2517 8.8355 15.1137 9.1625 15.1457 9.4955C15.1617 9.6615 15.1717 9.8285 15.1717 9.9985C15.1717 10.1675 15.1617 10.3355 15.1457 10.5015C15.1137 10.8345 15.2517 11.1615 15.5107 11.3715L17.1827 12.7265C16.8647 13.6075 16.3937 14.4275 15.7957 15.1415L13.7787 14.3685C13.4657 14.2475 13.1157 14.2925 12.8427 14.4855C12.5717 14.6775 12.2777 14.8475 11.9697 14.9895C11.6677 15.1295 11.4547 15.4105 11.4027 15.7395L11.0637 17.8695ZM9.6713 6.9984C8.0143 6.9984 6.6713 8.3414 6.6713 9.9984C6.6713 11.6554 8.0143 12.9984 9.6713 12.9984C11.3283 12.9984 12.6713 11.6554 12.6713 9.9984C12.6713 8.3414 11.3283 6.9984 9.6713 6.9984ZM10.6713 9.9984C10.6713 9.4474 10.2233 8.9984 9.6713 8.9984C9.1193 8.9984 8.6713 9.4474 8.6713 9.9984C8.6713 10.5494 9.1193 10.9984 9.6713 10.9984C10.2233 10.9984 10.6713 10.5494 10.6713 9.9984Z" fill="#202020"/>
</g>
</svg>
