<svg width="20" height="20" viewBox="0 0 20 20" fill="none" xmlns="http://www.w3.org/2000/svg">
<path fill-rule="evenodd" clip-rule="evenodd" d="M18.141 6.73075C16.0256 4.61536 13.2051 3.33331 9.99996 3.33331C6.79483 3.33331 3.91022 4.61536 1.85893 6.73075C1.73073 6.85895 1.66663 6.98716 1.66663 7.17947C1.66663 7.37177 1.73073 7.49998 1.85893 7.62818L2.75637 8.52562C3.01278 8.78203 3.3974 8.78203 3.65381 8.52562C5.25637 6.92306 7.49996 5.89742 9.99996 5.89742C12.5 5.89742 14.7435 6.92306 16.3461 8.52562C16.6025 8.78203 16.9871 8.78203 17.2435 8.52562L18.141 7.62818C18.2692 7.49998 18.3333 7.37177 18.3333 7.17947C18.3333 6.98716 18.2692 6.79485 18.141 6.73075ZM9.99996 8.46152C8.20509 8.46152 6.66663 9.16665 5.51278 10.3205C5.25637 10.5769 5.25637 10.9615 5.51278 11.2179L6.41022 12.1154C6.66663 12.3718 7.05124 12.3718 7.30765 12.1154C8.01278 11.4102 8.97432 11.0256 9.99996 11.0256C11.0256 11.0256 11.9871 11.4743 12.6923 12.1154C12.9487 12.3718 13.3333 12.3718 13.5897 12.1154L14.4871 11.2179C14.7435 10.9615 14.7435 10.5769 14.4871 10.3205C13.3333 9.16665 11.7948 8.46152 9.99996 8.46152ZM11.282 14.8718C11.282 15.5798 10.708 16.1538 9.99996 16.1538C9.2919 16.1538 8.71791 15.5798 8.71791 14.8718C8.71791 14.1637 9.2919 13.5897 9.99996 13.5897C10.708 13.5897 11.282 14.1637 11.282 14.8718Z" fill="#43A047"/>
</svg>
