<svg width="24" height="24" viewBox="0 0 24 24" fill="none" xmlns="http://www.w3.org/2000/svg">
<g id="icons / wifi">
<path id="Combined Shape" d="M22.7462 7.505L22.1083 8.13995L22.2115 8.24361L22.3422 8.30925L22.7462 7.505ZM1.25385 7.505L1.89176 8.14003L1.90137 8.13007L1.25385 7.505ZM1.25385 8.695L0.616009 9.32995L0.616009 9.32995L1.25385 8.695ZM2.43846 9.885L3.0763 9.25005V9.25005L2.43846 9.885ZM3.62308 9.885L2.98524 9.25005V9.25005L3.62308 9.885ZM20.3769 9.885L21.0148 9.25005V9.25005L20.3769 9.885ZM21.5615 9.885L20.9237 9.25005L20.9237 9.25005L21.5615 9.885ZM22.7462 8.695L22.1083 8.06005V8.06005L22.7462 8.695ZM6.07692 12.265L5.43909 11.63L5.43909 11.63L6.07692 12.265ZM6.07692 13.455L5.43909 14.09L5.43909 14.09L6.07692 13.455ZM7.26154 14.645L6.6237 15.28H6.6237L7.26154 14.645ZM8.44615 14.645L9.08399 15.28H9.08399L8.44615 14.645ZM15.5538 14.645L16.1917 14.01L16.1766 13.9949L16.1608 13.9804L15.5538 14.645ZM16.7385 14.645L17.3763 15.28H17.3763L16.7385 14.645ZM17.9231 13.455L17.2852 12.82L17.2852 12.82L17.9231 13.455ZM17.9231 12.265L17.2852 12.9L17.2852 12.9L17.9231 12.265ZM12 3.9C15.9769 3.9 19.4744 5.49408 22.1083 8.13995L23.384 6.87005C20.4333 3.90592 16.4846 2.1 12 2.1V3.9ZM1.90137 8.13007C4.44081 5.49937 8.01537 3.9 12 3.9V2.1C7.52309 2.1 3.48226 3.90063 0.606318 6.87993L1.90137 8.13007ZM1.9 8.1C1.9 8.08616 1.90113 8.0858 1.89935 8.09497C1.89741 8.10498 1.89338 8.11924 1.8865 8.13477C1.87977 8.15 1.87346 8.15931 1.87179 8.16161C1.87072 8.1631 1.87552 8.15619 1.89168 8.13995L0.616009 6.87005C0.478331 7.00835 0.339624 7.18225 0.240418 7.40648C0.139534 7.6345 0.1 7.86801 0.1 8.1H1.9ZM1.89168 8.06005C1.87552 8.04381 1.87072 8.0369 1.87179 8.03839C1.87346 8.0407 1.87977 8.05 1.88651 8.06523C1.89338 8.08076 1.89741 8.09502 1.89935 8.10503C1.90113 8.1142 1.9 8.11384 1.9 8.1H0.1C0.1 8.33199 0.139534 8.5655 0.240418 8.79352C0.339624 9.01775 0.478331 9.19165 0.616009 9.32995L1.89168 8.06005ZM3.0763 9.25005L1.89168 8.06005L0.616009 9.32995L1.80062 10.52L3.0763 9.25005ZM2.98524 9.25005C2.98058 9.25473 2.98227 9.25154 2.99219 9.24735C3.00192 9.24323 3.01531 9.24 3.03077 9.24C3.04623 9.24 3.05962 9.24323 3.06935 9.24735C3.07927 9.25154 3.08096 9.25473 3.0763 9.25005L1.80062 10.52C2.49088 11.2134 3.57065 11.2134 4.26091 10.52L2.98524 9.25005ZM12 5.5C8.44777 5.5 5.26025 6.96469 2.98524 9.25005L4.26091 10.52C6.21667 8.55531 8.95223 7.3 12 7.3V5.5ZM21.0148 9.25005C18.7397 6.96469 15.5522 5.5 12 5.5V7.3C15.0478 7.3 17.7833 8.55531 19.7391 10.52L21.0148 9.25005ZM20.9237 9.25005C20.919 9.25473 20.9207 9.25154 20.9307 9.24735C20.9404 9.24323 20.9538 9.24 20.9692 9.24C20.9847 9.24 20.9981 9.24323 21.0078 9.24735C21.0177 9.25154 21.0194 9.25473 21.0148 9.25005L19.7391 10.52C20.4293 11.2134 21.5091 11.2134 22.1994 10.52L20.9237 9.25005ZM22.1083 8.06005L20.9237 9.25005L22.1994 10.52L23.384 9.32995L22.1083 8.06005ZM22.1 8.1C22.1 8.11384 22.0989 8.1142 22.1006 8.10503C22.1026 8.09502 22.1066 8.08077 22.1135 8.06524C22.1202 8.05001 22.1265 8.0407 22.1282 8.03839C22.1293 8.0369 22.1245 8.04381 22.1083 8.06005L23.384 9.32995C23.5217 9.19165 23.6604 9.01774 23.7596 8.79351C23.8605 8.56549 23.9 8.33199 23.9 8.1H22.1ZM22.3422 8.30925C22.2485 8.26217 22.1878 8.20212 22.1532 8.15864C22.1195 8.11628 22.105 8.08326 22.1004 8.07169C22.0927 8.05249 22.1 8.06344 22.1 8.1H23.9C23.9 7.88156 23.865 7.63751 23.7727 7.40581C23.6849 7.1854 23.5041 6.87855 23.1501 6.70075L22.3422 8.30925ZM6.71476 12.9C8.07833 11.5302 9.88317 10.7 12 10.7V8.9C9.37837 8.9 7.12167 9.93982 5.43909 11.63L6.71476 12.9ZM6.71476 12.82C6.7101 12.8154 6.71285 12.8166 6.71657 12.8255C6.72021 12.8342 6.72308 12.8462 6.72308 12.86C6.72308 12.8738 6.72021 12.8858 6.71657 12.8945C6.71285 12.9034 6.7101 12.9046 6.71476 12.9L5.43909 11.63C4.75107 12.3212 4.75107 13.3988 5.43909 14.09L6.71476 12.82ZM7.89938 14.01L6.71476 12.82L5.43909 14.09L6.6237 15.28L7.89938 14.01ZM7.80832 14.01C7.80365 14.0147 7.80535 14.0115 7.81527 14.0073C7.825 14.0032 7.83839 14 7.85385 14C7.8693 14 7.8827 14.0032 7.89242 14.0073C7.90234 14.0115 7.90404 14.0147 7.89938 14.01L6.6237 15.28C7.31396 15.9733 8.39373 15.9733 9.08399 15.28L7.80832 14.01ZM12 12.3C10.4182 12.3 8.9159 12.8974 7.80832 14.01L9.08399 15.28C9.83794 14.5226 10.8741 14.1 12 14.1V12.3ZM16.1608 13.9804C15.0939 13.0061 13.6157 12.3 12 12.3V14.1C13.092 14.1 14.1523 14.5839 14.9469 15.3096L16.1608 13.9804ZM16.1006 14.01C16.096 14.0147 16.0977 14.0115 16.1076 14.0073C16.1173 14.0032 16.1307 14 16.1462 14C16.1616 14 16.175 14.0032 16.1847 14.0073C16.1947 14.0115 16.1963 14.0147 16.1917 14.01L14.916 15.28C15.6063 15.9733 16.686 15.9733 17.3763 15.28L16.1006 14.01ZM17.2852 12.82L16.1006 14.01L17.3763 15.28L18.5609 14.09L17.2852 12.82ZM17.2852 12.9C17.2899 12.9046 17.2872 12.9034 17.2834 12.8945C17.2798 12.8858 17.2769 12.8738 17.2769 12.86C17.2769 12.8462 17.2798 12.8342 17.2834 12.8255C17.2872 12.8166 17.2899 12.8154 17.2852 12.82L18.5609 14.09C19.2489 13.3988 19.2489 12.3212 18.5609 11.63L17.2852 12.9ZM12 10.7C14.1168 10.7 15.9217 11.5302 17.2852 12.9L18.5609 11.63C16.8783 9.93982 14.6216 8.9 12 8.9V10.7ZM12 20.9C13.4355 20.9 14.5923 19.7321 14.5923 18.3H12.7923C12.7923 18.7457 12.4337 19.1 12 19.1V20.9ZM9.40769 18.3C9.40769 19.7321 10.5645 20.9 12 20.9V19.1C11.5663 19.1 11.2077 18.7457 11.2077 18.3H9.40769ZM12 15.7C10.5645 15.7 9.40769 16.8679 9.40769 18.3H11.2077C11.2077 17.8543 11.5663 17.5 12 17.5V15.7ZM14.5923 18.3C14.5923 16.8679 13.4355 15.7 12 15.7V17.5C12.4337 17.5 12.7923 17.8543 12.7923 18.3H14.5923Z" fill="#202020"/>
</g>
</svg>
